<svg id="Layer_1" data-name="Layer 1" xmlns="http://www.w3.org/2000/svg" viewBox="0 0 200 50"><defs><style>.cls-1{fill:#fdf3e1;}</style></defs><path class="cls-1" d="M20.37,7c.31,0,.62,0,.93,0a20.76,20.76,0,0,1,6.74,2c2,.92,3.78,1.89,5.11,2.33a3.62,3.62,0,0,0,1.56.26,1.2,1.2,0,0,0,.36-.08.64.64,0,0,1,.18-.1,1.76,1.76,0,0,0,.28-.31.91.91,0,0,1,1.26-.2A.9.9,0,0,1,37,12.23a3.15,3.15,0,0,1-.8.75h0a5.91,5.91,0,0,0-2.58,5.44l-.07,15.06c0,1.48.39,1.68,1.29.11l7.82-13.94v0a55.72,55.72,0,0,1,4-6.27,6.63,6.63,0,0,1,4.21-2.65H51a.89.89,0,0,1,.13,1.77,4.63,4.63,0,0,0-3.11,2,57.67,57.67,0,0,0-3.84,6L36.36,34.48l-3,5.31a.9.9,0,0,1-1.68-.47v0l.1-20.86A10.93,10.93,0,0,1,32,16.54c.13-1-.09-1.41-.65-.58s-1.06,1.62-1.73,2.81h0L22.76,30.9l0,0a36.24,36.24,0,0,1-4.67,6.57,8.92,8.92,0,0,1-5.94,2.73c-3.41.23-6-1.36-7-3.42A.89.89,0,1,1,6.76,36c.6,1.26,2.46,2.6,5.25,2.41a6.86,6.86,0,0,0,4.8-2.21A36.42,36.42,0,0,0,21.22,30L28,17.9h0a25.81,25.81,0,0,1,2.64-4c1-1.14.61-1.25-.32-1.73s-2-1-3-1.46a19.27,19.27,0,0,0-6.16-1.86,9.89,9.89,0,0,0-6.58,1.7c-4.27,2.82-4.52,6.79-3,9.53a5.65,5.65,0,0,0,3.32,2.79,5.39,5.39,0,0,0,4.75-1,.89.89,0,1,1,1,1.47,7.31,7.31,0,0,1-6.25,1.24A7.41,7.41,0,0,1,10,20.9C8.06,17.41,8.67,12.29,13.58,9a11.79,11.79,0,0,1,6.79-2Z"/><path class="cls-1" d="M57,18.69A.89.89,0,0,1,57.77,20l-.15.26-2.91,5.18q-.33.59-.63,1.17l0,.06c0,.05,0,.09-.07.14l-.66,1.29a6.44,6.44,0,0,0-.75,2.63c0,.29.08.38.16.44s.32.17.9.11a3.72,3.72,0,0,0,2-1.31,19.66,19.66,0,0,0,2.82-4.14.88.88,0,0,1,1.21-.38.89.89,0,0,1,.36,1.22A20.74,20.74,0,0,1,57,31.23a5.28,5.28,0,0,1-3.13,1.85,3,3,0,0,1-2.18-.47c-.74-.59-.7-1.22-1.52-.6a4.39,4.39,0,0,1-2.31,1.07,3.34,3.34,0,0,1-3.58-1.93,4.71,4.71,0,0,1,.26-3.81c.42-.86.9-1.8,1.43-2.74l3-5.28h0l.1-.17a.89.89,0,1,1,1.55.89l-.1.17-3,5.27c-.5.9-1,1.82-1.39,2.66a3.17,3.17,0,0,0-.2,2.35c.24.6.59.95,1.74.83a3.75,3.75,0,0,0,2-1.31,19.26,19.26,0,0,0,2.73-4c.24-.47.49-.94.76-1.41l2.91-5.19h0l.15-.26a.85.85,0,0,1,.78-.46Z"/><path class="cls-1" d="M67.67,13l-2.53,4.51c-.59,1.06-.21,1.07.57,1H67a.9.9,0,1,1,0,1.79H64.84c-1.4,0-1.49.4-1.79.92L60.7,25.47c-.51.9-1,1.82-1.39,2.66a6.44,6.44,0,0,0-.75,2.63c0,.29.08.38.16.44s.32.17.9.11a3.72,3.72,0,0,0,2-1.31,19.31,19.31,0,0,0,2.81-4.14A.89.89,0,1,1,66,26.7,20.75,20.75,0,0,1,63,31.23a5.28,5.28,0,0,1-3.13,1.85,3,3,0,0,1-2.19-.47,2.41,2.41,0,0,1-.85-1.73,7.22,7.22,0,0,1,.93-3.54c.43-.86.91-1.8,1.44-2.74L61,21.25c.37-.65.21-.88-.54-.89H59.2a.9.9,0,1,1,0-1.79h2.08a1.77,1.77,0,0,0,1.87-1.11l3-5.3a.89.89,0,1,1,1.55.87Z"/><path class="cls-1" d="M67.81,23.45l-2,3.53a.89.89,0,1,1-1.56-.87c.62-1.12,1.3-2.34,1.94-3.52a.93.93,0,0,1,.78-.47A.89.89,0,0,1,67.81,23.45Zm.68-7.16h.11a1.78,1.78,0,0,1,1.08.45,2.32,2.32,0,0,1,.26,2.76c-.2.42-.31.77.11.93l.65.22A3.76,3.76,0,0,1,72.77,22a3.07,3.07,0,0,1,0,3c-.65,1.38-1.68,3.21-2.18,4.62a3.07,3.07,0,0,0-.07,1.45c.07.21.08.19.19.22a3,3,0,0,0,1.92-1,20.57,20.57,0,0,0,3.12-4.45.89.89,0,1,1,1.57.84,21.87,21.87,0,0,1-3.41,4.85A3.93,3.93,0,0,1,70.27,33a2.12,2.12,0,0,1-1.48-1.39,4.43,4.43,0,0,1,0-2.47s0-.06,0-.09a52.86,52.86,0,0,1,2.26-4.82c.41-.87.31-1.11.19-1.28a2.7,2.7,0,0,0-1.18-.66A16.64,16.64,0,0,1,68,21.54a2.85,2.85,0,0,1-1.65-2.08,3.15,3.15,0,0,1,.5-2.18l0-.05a2.29,2.29,0,0,1,1.36-.91,1.53,1.53,0,0,1,.3,0Zm-.23,2a1.24,1.24,0,0,0-.23.49c0,.33.09.33.2.13l0-.05a1.62,1.62,0,0,0,.15-.29C68.46,18.45,68.56,17.92,68.26,18.3Z"/><path class="cls-1" d="M79.76,19.52a.89.89,0,0,1,.89.89,1.21,1.21,0,0,1-.12.45l-2.59,4.61c-.5.9-1,1.82-1.39,2.66a6.44,6.44,0,0,0-.75,2.62c0,.3.08.39.17.45s.31.17.9.11a3.74,3.74,0,0,0,2-1.31,19.66,19.66,0,0,0,2.82-4.14,1,1,0,0,1,.79-.49.89.89,0,0,1,.89.89,1.1,1.1,0,0,1-.11.44,21,21,0,0,1-3.1,4.53,5.28,5.28,0,0,1-3.13,1.85,3,3,0,0,1-2.18-.47A2.33,2.33,0,0,1,74,30.88,7.11,7.11,0,0,1,75,27.34c.43-.86.91-1.8,1.44-2.74L79,20a1,1,0,0,1,.78-.47Zm2.65-1.75a1.17,1.17,0,1,1-1.17-1.17A1.18,1.18,0,0,1,82.41,17.77Z"/><path class="cls-1" d="M95.85,26.82h0a.89.89,0,1,1,0,1.78H86.09a.89.89,0,0,1,0-1.78h9.76Z"/><path class="cls-1" d="M134.34,9.68a2.79,2.79,0,0,1,1.91,1.93,5,5,0,0,1-.3,3.19c-1.24,3.18-4.5,6.63-9,8.85a3.05,3.05,0,0,0-1.94,2.21,31.64,31.64,0,0,1-2.33,7,13.46,13.46,0,0,1-12.33,7.43,10.68,10.68,0,0,1-9.4-5.74c-1.73-3.42-1.58-8,1.47-12.43,3.77-5.51,9.43-6.29,13.1-4.18a7,7,0,0,1,3.48,5c.13.95.31,1.09,1.17,1,.41-.05.81-.12,1.2-.2a.89.89,0,1,1,.37,1.74c-.56.12-1.14.22-1.72.29-.92.11-1.28.33-1.59,1.13a11.69,11.69,0,0,1-2,3.16.89.89,0,0,1-1.26.11.88.88,0,0,1-.1-1.26c1.83-2.16,2.34-4.12,2.11-5.72a5.08,5.08,0,0,0-2.6-3.73,7,7,0,0,0-6-.37c-1,.37-1,.92-.5,1.54A8.47,8.47,0,0,0,113,23.53a18.75,18.75,0,0,0,2.26.44.89.89,0,1,1-.23,1.77,20.12,20.12,0,0,1-2.48-.49,10.41,10.41,0,0,1-5.75-3.55c-.71-.91-1.15-.69-1.72-.05a14.21,14.21,0,0,0-1.12,1.43c-2.76,4-2.79,7.8-1.36,10.62a8.89,8.89,0,0,0,7.84,4.77A11.63,11.63,0,0,0,121.13,32c1.39-2.75,2.09-6.22,2.92-9.66s1.8-6.84,4-9.43c1.81-2.16,3.64-3.3,5.25-3.37A3.17,3.17,0,0,1,134.34,9.68ZM118.85,8.29A7.27,7.27,0,0,1,122,12.75a.89.89,0,1,1-1.72.45,5.37,5.37,0,0,0-2.42-3.4,8.15,8.15,0,0,0-3.85-1.09c-4.06-.2-7,3.47-7.25,7.28a.88.88,0,0,1-.94.85.9.9,0,0,1-.84-.95c.26-4.68,4-9.22,9.12-9A9.77,9.77,0,0,1,118.85,8.29Zm10.53,5.78a17.09,17.09,0,0,0-2.95,6.28c-.39,1.35-.21,1.7.9,1.08,3.51-2.06,6.06-4.95,7-7.28a3.43,3.43,0,0,0,.25-2.05.87.87,0,0,0-.67-.71,1.47,1.47,0,0,0-.32,0C132.71,11.35,131.13,12,129.38,14.07Z"/><path class="cls-1" d="M140.05,18.71a2.5,2.5,0,0,1,1.16.27,2.06,2.06,0,0,1,.93,1.1c.19.54.52.41.84.18h0a8.26,8.26,0,0,1,2.52-1.34,4,4,0,0,1,1.21-.21,2.43,2.43,0,0,1,1.15.27A2.37,2.37,0,0,1,149,21.16a7.81,7.81,0,0,1-1,3.26c-.14.29-.29.59-.45.89a.46.46,0,0,1-.07.16c-.05.09-.1.18-.14.27l-.6,1.11c-.23.44-.45.87-.65,1.28a6.44,6.44,0,0,0-.75,2.63c0,.29.08.38.17.44s.31.17.9.11a3.74,3.74,0,0,0,2-1.31,19.66,19.66,0,0,0,2.82-4.14.88.88,0,0,1,1.21-.38.89.89,0,0,1,.36,1.22,20.74,20.74,0,0,1-3.1,4.53,5.28,5.28,0,0,1-3.13,1.85,3,3,0,0,1-2.18-.47,2.38,2.38,0,0,1-.86-1.73,7.22,7.22,0,0,1,.93-3.54l.46-.91a1,1,0,0,1,.07-.15l.15-.27.59-1.11c.23-.43.45-.86.65-1.28h0a6.66,6.66,0,0,0,.82-2.51c0-.48-.06-.5-.17-.55a1.61,1.61,0,0,0-1,.06,6.74,6.74,0,0,0-2,1.07,12.8,12.8,0,0,0-3.32,3.9l-.84,1.56-3.08,5.48a.89.89,0,1,1-1.55-.87l3.07-5.48c.21-.37.4-.73.6-1.1a.69.69,0,0,1,0-.13c.06-.1.12-.2.17-.3.2-.39.39-.76.57-1.13h0a6.48,6.48,0,0,0,.82-2.51c0-.48-.06-.5-.16-.55a1.64,1.64,0,0,0-1,.06,6.83,6.83,0,0,0-2,1.07,13,13,0,0,0-3.5,4.21l-.13.18-3.7,6.59a.89.89,0,1,1-1.56-.87l6.21-11,.84-1.56a.91.91,0,0,1,.78-.47.89.89,0,0,1,.74.37c.33.48.41.42.68.27a7.54,7.54,0,0,1,1.09-.44,4,4,0,0,1,1.21-.21Z"/><path class="cls-1" d="M159,18.67a3.55,3.55,0,0,1,1.23.22,3,3,0,0,1,1.61,1.35,4,4,0,0,1,.47,2A10.48,10.48,0,0,1,161,26.66h0a18.8,18.8,0,0,1-1.6,2.57c-.45.61-.49,1,.13,1.17a1.89,1.89,0,0,0,1.83-.75,5.94,5.94,0,0,0,.41-.51,23.3,23.3,0,0,0,2.09-3.28.87.87,0,0,1,.77-.48.88.88,0,0,1,.79,1.32,25.79,25.79,0,0,1-2.24,3.54,6.87,6.87,0,0,1-.53.64,3.77,3.77,0,0,1-3.51,1.26A3.17,3.17,0,0,1,157,30.41a.85.85,0,0,1-.15-.37c0-.05,0-.09,0-.14a3.29,3.29,0,0,1-.13-1.31,2.16,2.16,0,0,1,1.14-1.76c.73-.35,1.14-.17,1.61-1a8.92,8.92,0,0,0,1.05-3.64,2.24,2.24,0,0,0-.23-1.11,1.11,1.11,0,0,0-.67-.55,2.06,2.06,0,0,0-1.52.06,6,6,0,0,0-1.76,1.18,16.94,16.94,0,0,0-3,3.9,7.88,7.88,0,0,0-1.13,3.74,1.7,1.7,0,0,0,1.16,1.84,2.41,2.41,0,0,0,1.84-.37.89.89,0,0,1,1.23.31.91.91,0,0,1-.34,1.23,4.19,4.19,0,0,1-3.23.54h-.06a3.69,3.69,0,0,1-2.38-3.49,9.31,9.31,0,0,1,1.36-4.66,18.07,18.07,0,0,1,3.32-4.34A7.51,7.51,0,0,1,157.42,19a4.4,4.4,0,0,1,1.35-.29H159Z"/><path class="cls-1" d="M171.54,18.67a3.51,3.51,0,0,1,1.23.22,3,3,0,0,1,1.62,1.35,4,4,0,0,1,.46,2,10.32,10.32,0,0,1-1.24,4.43h0A19.62,19.62,0,0,1,172,29.23c-.46.61-.49,1,.13,1.17a1.89,1.89,0,0,0,1.83-.75,5.94,5.94,0,0,0,.41-.51,24.3,24.3,0,0,0,2.08-3.28.89.89,0,1,1,1.57.84,25.79,25.79,0,0,1-2.24,3.54,7.08,7.08,0,0,1-.54.64,3.76,3.76,0,0,1-3.5,1.26,3.17,3.17,0,0,1-2.16-1.73.85.85,0,0,1-.15-.37.74.74,0,0,1,0-.14,3.29,3.29,0,0,1-.13-1.31,2.17,2.17,0,0,1,1.13-1.76c.73-.35,1.15-.17,1.61-1a9,9,0,0,0,1.06-3.64,2.36,2.36,0,0,0-.23-1.11,1.16,1.16,0,0,0-.68-.55,2,2,0,0,0-1.51.06,5.83,5.83,0,0,0-1.76,1.18,16.94,16.94,0,0,0-3,3.9,7.77,7.77,0,0,0-1.13,3.74,1.7,1.7,0,0,0,1.16,1.84,2.38,2.38,0,0,0,1.83-.37.89.89,0,0,1,1.23.31.9.9,0,0,1-.33,1.23,4.19,4.19,0,0,1-3.23.54h-.06A3.69,3.69,0,0,1,163,29.49a9.21,9.21,0,0,1,1.36-4.66,18.07,18.07,0,0,1,3.32-4.34A7.51,7.51,0,0,1,170,19a4.34,4.34,0,0,1,1.35-.29Z"/><path class="cls-1" d="M185.64,13l-2.53,4.51c-.6,1.06-.22,1.07.56,1h1.25a.9.9,0,1,1,0,1.79h-2.11c-1.4,0-1.5.4-1.8.92l-2.35,4.19c-.5.9-1,1.82-1.39,2.66a6.44,6.44,0,0,0-.75,2.63c0,.29.08.38.17.44s.32.17.9.11a3.74,3.74,0,0,0,2-1.31,19.66,19.66,0,0,0,2.82-4.14.89.89,0,1,1,1.57.84,21.11,21.11,0,0,1-3.09,4.53,5.33,5.33,0,0,1-3.14,1.85,3,3,0,0,1-2.18-.47,2.33,2.33,0,0,1-.85-1.73,7.11,7.11,0,0,1,.92-3.54c.43-.86.91-1.8,1.44-2.74L179,21.25c.36-.65.2-.88-.55-.89h-1.28a.9.9,0,1,1,0-1.79h2.09a1.76,1.76,0,0,0,1.86-1.11l3-5.3a.89.89,0,1,1,1.56.87Z"/><path class="cls-1" d="M190.89,11.67a.89.89,0,0,1,.77,1.34l-3.19,5.69c-.31.56-.31.71.37.41a4.63,4.63,0,0,1,1.63-.4,1.86,1.86,0,0,1,.41,0,2.2,2.2,0,0,1,1.48.7,2.49,2.49,0,0,1,.53,1.62,9,9,0,0,1-1.73,4.47l0,0a23.3,23.3,0,0,0-1.8,2.86,7.28,7.28,0,0,0-.64,1.75c-.08.49,0,.74.11.88.34.39.53.41,1.1.17a5.61,5.61,0,0,0,2-1.93,32.91,32.91,0,0,0,2.23-3.42.89.89,0,1,1,1.57.84,32.85,32.85,0,0,1-2.33,3.59,7,7,0,0,1-2.83,2.56,2.72,2.72,0,0,1-3.14-.65,2.79,2.79,0,0,1-.51-2.33,8.13,8.13,0,0,1,.8-2.26,23.62,23.62,0,0,1,1.92-3.06A7.93,7.93,0,0,0,191.11,21c0-.3-.06-.4-.1-.44s-.08-.08-.28-.1a4.52,4.52,0,0,0-2.31.88,13.48,13.48,0,0,0-3.2,3.1l-4.6,8.2a.89.89,0,1,1-1.56-.87l4.61-8.2.05-.09,6.39-11.37a.87.87,0,0,1,.78-.47Z"/></svg>