<svg id="Layer_1" data-name="Layer 1" xmlns="http://www.w3.org/2000/svg" viewBox="0 0 200 50"><defs><style>.cls-1{fill:#bed7dc;}.cls-2{fill:#e37477;}</style></defs><path class="cls-1" d="M26.65,9.18c.28,0,.56,0,.83,0A18.63,18.63,0,0,1,33.53,11c1.8.82,3.38,1.69,4.57,2.09a3.47,3.47,0,0,0,1.41.23,1.5,1.5,0,0,0,.32-.08l.16-.09a1.34,1.34,0,0,0,.25-.27.8.8,0,1,1,1.29.95,2.69,2.69,0,0,1-.72.67h0a5.33,5.33,0,0,0-2.32,4.89l-.06,13.49c0,1.34.35,1.51,1.16.11l7-12.5v0a49,49,0,0,1,3.58-5.62A5.93,5.93,0,0,1,54,12.5h.13a.8.8,0,0,1,.11,1.59,4.11,4.11,0,0,0-2.78,1.81A50.26,50.26,0,0,0,48,21.31L41,33.8l-2.67,4.77a.8.8,0,0,1-1.5-.43v0l.09-18.7A9.72,9.72,0,0,1,37,17.72c.11-.86-.09-1.26-.58-.52a29.28,29.28,0,0,0-1.56,2.52h0L28.79,30.59l0,0a32.49,32.49,0,0,1-4.18,5.89A8,8,0,0,1,19.26,39c-3.05.21-5.38-1.22-6.26-3.07a.8.8,0,1,1,1.45-.68c.53,1.12,2.2,2.32,4.7,2.16a6.2,6.2,0,0,0,4.31-2,33.13,33.13,0,0,0,3.95-5.58l6.1-10.86h0a23.27,23.27,0,0,1,2.36-3.61c.88-1,.55-1.12-.28-1.54s-1.77-.87-2.73-1.31a17,17,0,0,0-5.52-1.67,8.83,8.83,0,0,0-5.9,1.52c-3.82,2.53-4.06,6.09-2.73,8.54a5.09,5.09,0,0,0,3,2.51A4.87,4.87,0,0,0,26,22.49a.8.8,0,1,1,.91,1.32,6.61,6.61,0,0,1-5.61,1.11,6.63,6.63,0,0,1-3.94-3.29C15.62,18.5,16.16,13.91,20.56,11a10.56,10.56,0,0,1,6.09-1.82Z"/><path class="cls-1" d="M59.49,19.64a.8.8,0,0,1,.68,1.21l-.13.23-2.61,4.65-.56,1,0,.06-.06.12c-.21.4-.41.79-.59,1.16a5.77,5.77,0,0,0-.67,2.36c0,.26.07.34.14.4a1.23,1.23,0,0,0,.81.09,3.31,3.31,0,0,0,1.83-1.17,17.68,17.68,0,0,0,2.52-3.72.81.81,0,0,1,1.09-.34.82.82,0,0,1,.32,1.1,18.88,18.88,0,0,1-2.78,4.06,4.73,4.73,0,0,1-2.81,1.66,2.66,2.66,0,0,1-2-.42c-.67-.53-.62-1.1-1.36-.54a4,4,0,0,1-2.07,1,3,3,0,0,1-3.21-1.73,4.22,4.22,0,0,1,.23-3.42c.38-.77.81-1.61,1.28-2.45l2.65-4.73h0l.09-.15a.77.77,0,0,1,.7-.41.79.79,0,0,1,.68,1.2l-.08.15L51,25.73c-.46.81-.88,1.63-1.25,2.38a2.83,2.83,0,0,0-.18,2.11c.22.54.52.85,1.56.74a3.32,3.32,0,0,0,1.82-1.17,17.52,17.52,0,0,0,2.45-3.58c.22-.42.44-.84.68-1.26l2.61-4.65h0l.14-.23a.78.78,0,0,1,.7-.42Z"/><path class="cls-1" d="M69.05,14.58l-2.26,4c-.53.95-.2,1,.51.92h1.11a.8.8,0,0,1,.81.8.79.79,0,0,1-.81.8H66.52c-1.26,0-1.34.36-1.61.83L62.8,25.73c-.45.81-.87,1.63-1.24,2.38a5.77,5.77,0,0,0-.67,2.36c0,.26.07.34.14.4a1.23,1.23,0,0,0,.81.09,3.31,3.31,0,0,0,1.83-1.17,18.07,18.07,0,0,0,2.52-3.72.8.8,0,1,1,1.4.76,18.53,18.53,0,0,1-2.77,4.06A4.73,4.73,0,0,1,62,32.55a2.66,2.66,0,0,1-1.95-.42,2.12,2.12,0,0,1-.77-1.55,6.61,6.61,0,0,1,.83-3.18c.39-.77.82-1.61,1.29-2.45l1.68-3c.33-.58.19-.79-.49-.8H61.46a.79.79,0,0,1-.81-.8.8.8,0,0,1,.81-.8h1.87a1.59,1.59,0,0,0,1.67-1l2.66-4.74a.8.8,0,1,1,1.39.78Z"/><path class="cls-1" d="M69.17,23.92l-1.74,3.16A.8.8,0,1,1,66,26.3c.56-1,1.17-2.1,1.74-3.15a.83.83,0,0,1,.7-.43A.8.8,0,0,1,69.17,23.92Zm.62-6.42h.09a1.54,1.54,0,0,1,1,.4,2.07,2.07,0,0,1,.24,2.48c-.19.38-.28.68.09.83l.59.19a3.4,3.4,0,0,1,1.85,1.2,2.75,2.75,0,0,1,0,2.73c-.58,1.23-1.51,2.87-2,4.14a2.68,2.68,0,0,0-.07,1.29c.07.2.07.17.18.2a2.62,2.62,0,0,0,1.71-.89,17.87,17.87,0,0,0,2.8-4,.8.8,0,1,1,1.41.76,19.31,19.31,0,0,1-3.06,4.35,3.51,3.51,0,0,1-3.23,1.33,1.9,1.9,0,0,1-1.32-1.24,4,4,0,0,1,0-2.22s0-.05,0-.08c.53-1.5,1.5-3.19,2-4.32.36-.78.27-1,.17-1.15a2.46,2.46,0,0,0-1.06-.59,13.67,13.67,0,0,1-1.94-.71,2.56,2.56,0,0,1-1.49-1.86,2.89,2.89,0,0,1,.45-2l0,0a2.13,2.13,0,0,1,1.22-.82l.27,0Zm-.21,1.8a1.17,1.17,0,0,0-.21.44c0,.3.09.3.19.11,0,0,0,0,0,0a2.36,2.36,0,0,0,.14-.26C69.76,19.43,69.85,19,69.58,19.3Z"/><path class="cls-1" d="M79.89,20.39a.8.8,0,0,1,.8.8.92.92,0,0,1-.11.4l-2.32,4.14c-.45.81-.87,1.63-1.25,2.38a5.94,5.94,0,0,0-.67,2.35c0,.27.08.35.15.4s.29.16.81.1a3.32,3.32,0,0,0,1.82-1.17,17.66,17.66,0,0,0,2.53-3.72.86.86,0,0,1,.71-.43.79.79,0,0,1,.79.8.9.9,0,0,1-.1.39,18.88,18.88,0,0,1-2.77,4.06,4.76,4.76,0,0,1-2.81,1.66,2.69,2.69,0,0,1-2-.42,2.14,2.14,0,0,1-.76-1.55,6.5,6.5,0,0,1,.83-3.18c.38-.77.82-1.61,1.29-2.45l2.32-4.14a.86.86,0,0,1,.7-.42Zm2.38-1.57a1,1,0,1,1-1-1.05A1,1,0,0,1,82.27,18.82Z"/><path class="cls-1" d="M94.31,26.94h0a.8.8,0,0,1,0,1.6H85.57a.8.8,0,1,1,0-1.6h8.74Z"/><path class="cls-1" d="M128.82,11.57a2.5,2.5,0,0,1,1.72,1.73,4.55,4.55,0,0,1-.27,2.86c-1.11,2.85-4,5.95-8,7.93a2.7,2.7,0,0,0-1.73,2,28.79,28.79,0,0,1-2.09,6.24A12.07,12.07,0,0,1,107.35,39a9.6,9.6,0,0,1-8.43-5.15c-1.55-3.06-1.41-7.14,1.33-11.14,3.37-4.94,8.45-5.65,11.73-3.75a6.2,6.2,0,0,1,3.12,4.51c.12.85.28,1,1.06.9.36-.05.72-.11,1.07-.18a.8.8,0,1,1,.33,1.56A15.45,15.45,0,0,1,116,26a1.4,1.4,0,0,0-1.42,1,10.33,10.33,0,0,1-1.76,2.83.8.8,0,0,1-1.13.1.81.81,0,0,1-.09-1.13c1.64-1.93,2.1-3.69,1.9-5.13a4.57,4.57,0,0,0-2.33-3.34,6.23,6.23,0,0,0-5.36-.33c-.85.33-.9.82-.45,1.38A7.65,7.65,0,0,0,109.67,24a19.06,19.06,0,0,0,2,.39.8.8,0,1,1-.21,1.59,18.14,18.14,0,0,1-2.22-.44,9.37,9.37,0,0,1-5.16-3.18c-.63-.82-1-.62-1.53-.05a11.6,11.6,0,0,0-1,1.29c-2.47,3.62-2.49,7-1.21,9.51a7.93,7.93,0,0,0,7,4.28A10.43,10.43,0,0,0,117,31.6c1.25-2.46,1.87-5.58,2.62-8.66s1.61-6.14,3.55-8.46c1.63-1.94,3.27-3,4.71-3A3.08,3.08,0,0,1,128.82,11.57Zm-13.89-1.25a6.61,6.61,0,0,1,2.87,4,.8.8,0,1,1-1.55.4,4.8,4.8,0,0,0-2.16-3,7.43,7.43,0,0,0-3.46-1c-3.63-.18-6.31,3.11-6.5,6.53a.8.8,0,1,1-1.59-.09c.23-4.2,3.55-8.26,8.17-8A8.77,8.77,0,0,1,114.93,10.32Zm9.45,5.19a15.16,15.16,0,0,0-2.65,5.63c-.35,1.21-.19,1.52.81,1,3.15-1.84,5.43-4.43,6.24-6.52a3.09,3.09,0,0,0,.22-1.84.77.77,0,0,0-.6-.63.85.85,0,0,0-.29,0C127.36,13.07,125.94,13.64,124.38,15.51Z"/><path class="cls-1" d="M133.94,19.67a2.23,2.23,0,0,1,1,.24,1.82,1.82,0,0,1,.83,1c.18.48.47.36.76.16h0a8,8,0,0,1,2.26-1.2,3.82,3.82,0,0,1,1.09-.18,2.17,2.17,0,0,1,1,.24,2.09,2.09,0,0,1,1,1.95,7,7,0,0,1-.9,2.92c-.12.26-.26.53-.4.81l-.06.14-.14.24-.53,1c-.21.4-.4.78-.58,1.15a5.77,5.77,0,0,0-.67,2.36c0,.26.07.34.14.39a1.13,1.13,0,0,0,.81.1,3.31,3.31,0,0,0,1.83-1.17A17.68,17.68,0,0,0,144,26.07a.79.79,0,0,1,1.09-.33.8.8,0,0,1,.32,1.09,18.88,18.88,0,0,1-2.78,4.06,4.73,4.73,0,0,1-2.81,1.66,2.66,2.66,0,0,1-1.95-.42,2.12,2.12,0,0,1-.77-1.55,6.51,6.51,0,0,1,.84-3.18c.13-.26.26-.53.41-.81a.42.42,0,0,1,.06-.14l.13-.24.53-1c.21-.39.4-.78.58-1.15h0a6,6,0,0,0,.73-2.25c0-.43-.06-.45-.15-.49a1.42,1.42,0,0,0-.91.05,6,6,0,0,0-1.77.95,11.67,11.67,0,0,0-3,3.5c-.24.46-.49.93-.76,1.4L131,32.15a.8.8,0,1,1-1.4-.78l2.76-4.92.53-1,.06-.12.15-.27c.18-.34.35-.68.51-1h0a6,6,0,0,0,.73-2.25c0-.43-.06-.45-.15-.49a1.42,1.42,0,0,0-.91.05,6.22,6.22,0,0,0-1.77.95,11.63,11.63,0,0,0-3.13,3.78,1,1,0,0,1-.12.16L125,32.18a.79.79,0,0,1-1.09.32.8.8,0,0,1-.3-1.1l5.56-9.9.76-1.4a.8.8,0,0,1,1.36-.09c.29.42.37.37.61.24a6,6,0,0,1,1-.4,3.88,3.88,0,0,1,1.09-.18Z"/><path class="cls-1" d="M150.88,19.63a3.22,3.22,0,0,1,1.1.19A2.75,2.75,0,0,1,153.43,21a3.52,3.52,0,0,1,.42,1.78,9.3,9.3,0,0,1-1.12,4h0a17.33,17.33,0,0,1-1.43,2.3c-.41.55-.44.9.11,1.06a1.7,1.7,0,0,0,1.64-.67,5.83,5.83,0,0,0,.38-.46,21,21,0,0,0,1.86-2.95.8.8,0,1,1,1.41.76,24.47,24.47,0,0,1-2,3.17,7.32,7.32,0,0,1-.48.58,3.38,3.38,0,0,1-3.14,1.13,2.81,2.81,0,0,1-1.94-1.56.81.81,0,0,1-.14-.33l0-.12a3,3,0,0,1-.12-1.17,2,2,0,0,1,1-1.59c.65-.31,1-.15,1.44-.87a8,8,0,0,0,.95-3.25,2,2,0,0,0-.21-1,1.05,1.05,0,0,0-.6-.5,1.89,1.89,0,0,0-1.36.06,5.35,5.35,0,0,0-1.58,1.05,15.07,15.07,0,0,0-2.67,3.5,7,7,0,0,0-1,3.35,1.52,1.52,0,0,0,1,1.66,2.16,2.16,0,0,0,1.64-.34.8.8,0,1,1,.8,1.38,3.75,3.75,0,0,1-2.89.49h0a3.31,3.31,0,0,1-2.14-3.13,8.3,8.3,0,0,1,1.22-4.18,16.1,16.1,0,0,1,3-3.89,6.58,6.58,0,0,1,2.09-1.37,3.91,3.91,0,0,1,1.21-.26Z"/><path class="cls-1" d="M162.17,19.63a3.32,3.32,0,0,1,1.11.19A2.83,2.83,0,0,1,164.73,21a3.62,3.62,0,0,1,.41,1.78,9.16,9.16,0,0,1-1.12,4h0a16.33,16.33,0,0,1-1.43,2.3c-.41.55-.44.9.12,1.06a1.72,1.72,0,0,0,1.64-.67c.1-.11.22-.27.37-.46a21,21,0,0,0,1.86-2.95.81.81,0,0,1,.7-.43.8.8,0,0,1,.71,1.19A22.5,22.5,0,0,1,166,30a7.32,7.32,0,0,1-.48.58,3.36,3.36,0,0,1-3.14,1.13,2.83,2.83,0,0,1-1.94-1.56.79.79,0,0,1-.13-.33.56.56,0,0,1,0-.12,3,3,0,0,1-.12-1.17,2,2,0,0,1,1-1.59c.66-.31,1-.15,1.45-.87a8,8,0,0,0,.94-3.25,1.93,1.93,0,0,0-.21-1,1,1,0,0,0-.6-.5,1.89,1.89,0,0,0-1.36.06,5.35,5.35,0,0,0-1.58,1.05,15.35,15.35,0,0,0-2.67,3.5,7.06,7.06,0,0,0-1,3.35,1.54,1.54,0,0,0,1,1.66,2.19,2.19,0,0,0,1.65-.34.8.8,0,1,1,.79,1.38,3.74,3.74,0,0,1-2.89.49h0a3.33,3.33,0,0,1-2.14-3.13,8.3,8.3,0,0,1,1.22-4.18,16.36,16.36,0,0,1,3-3.89,6.69,6.69,0,0,1,2.09-1.37,3.91,3.91,0,0,1,1.22-.26Z"/><path class="cls-1" d="M174.81,14.58l-2.27,4c-.53.95-.19,1,.51.92h1.12a.81.81,0,0,1,.81.8.8.8,0,0,1-.81.8h-1.9c-1.25,0-1.34.36-1.61.83l-2.1,3.76c-.46.81-.88,1.63-1.25,2.38a5.77,5.77,0,0,0-.67,2.36c0,.26.07.34.15.4a1.17,1.17,0,0,0,.8.09,3.31,3.31,0,0,0,1.83-1.17,17.31,17.31,0,0,0,2.52-3.72.8.8,0,1,1,1.41.76,19.25,19.25,0,0,1-2.77,4.06,4.78,4.78,0,0,1-2.82,1.66,2.67,2.67,0,0,1-1.95-.42,2.07,2.07,0,0,1-.76-1.55,6.4,6.4,0,0,1,.83-3.18c.38-.77.81-1.61,1.28-2.45l1.69-3c.32-.58.18-.79-.49-.8h-1.15a.79.79,0,0,1-.81-.8.8.8,0,0,1,.81-.8h1.87a1.59,1.59,0,0,0,1.67-1l2.66-4.74a.8.8,0,1,1,1.4.78Z"/><path class="cls-1" d="M179.52,13.36a.8.8,0,0,1,.69,1.2l-2.86,5.1c-.28.5-.28.63.34.36a4.22,4.22,0,0,1,1.46-.36h.36a2,2,0,0,1,1.32.63,2.15,2.15,0,0,1,.48,1.46,7.92,7.92,0,0,1-1.55,4l0,0a20.73,20.73,0,0,0-1.62,2.56,6.19,6.19,0,0,0-.57,1.57c-.07.44,0,.67.1.79.3.35.47.37,1,.15a5,5,0,0,0,1.84-1.73,28.84,28.84,0,0,0,2-3.07.8.8,0,1,1,1.41.76,29.77,29.77,0,0,1-2.1,3.22,6.24,6.24,0,0,1-2.53,2.29,2.46,2.46,0,0,1-2.82-.58,2.52,2.52,0,0,1-.45-2.09,7.05,7.05,0,0,1,.71-2,19.91,19.91,0,0,1,1.73-2.74,7.44,7.44,0,0,0,1.3-3.16.61.61,0,0,0-.09-.4s-.07-.07-.25-.09a4,4,0,0,0-2.07.79,12.09,12.09,0,0,0-2.87,2.78l-4.13,7.35a.8.8,0,1,1-1.39-.78l4.13-7.35a.2.2,0,0,1,0-.08l5.73-10.19a.8.8,0,0,1,.7-.42Z"/><path class="cls-2" d="M27.94,9.18c.28,0,.56,0,.83,0A18.56,18.56,0,0,1,34.82,11c1.8.82,3.38,1.69,4.57,2.09a3.47,3.47,0,0,0,1.41.23,1.36,1.36,0,0,0,.32-.08l.16-.09a1.34,1.34,0,0,0,.25-.27.8.8,0,1,1,1.29.95,2.69,2.69,0,0,1-.72.67h0a5.33,5.33,0,0,0-2.32,4.89l-.06,13.49c0,1.34.35,1.51,1.16.11l7-12.5v0a49,49,0,0,1,3.58-5.62,6,6,0,0,1,3.78-2.38h.13a.8.8,0,0,1,.11,1.59,4.11,4.11,0,0,0-2.78,1.81,50.26,50.26,0,0,0-3.45,5.42l-7,12.49L39.6,38.57a.8.8,0,0,1-1.5-.43v0l.09-18.7a9.72,9.72,0,0,1,.14-1.69c.11-.86-.09-1.26-.58-.52a29.28,29.28,0,0,0-1.56,2.52h0L30.08,30.59l0,0a32.49,32.49,0,0,1-4.18,5.89A8,8,0,0,1,20.55,39c-3.05.21-5.38-1.22-6.26-3.07a.8.8,0,1,1,1.45-.68c.53,1.12,2.2,2.32,4.7,2.16a6.2,6.2,0,0,0,4.31-2A33.13,33.13,0,0,0,28.7,29.8l6.1-10.86h0a23.27,23.27,0,0,1,2.36-3.61c.88-1,.55-1.12-.28-1.54s-1.77-.87-2.73-1.31a17,17,0,0,0-5.52-1.67,8.83,8.83,0,0,0-5.9,1.52c-3.82,2.53-4.05,6.09-2.73,8.54a5.09,5.09,0,0,0,3,2.51,4.87,4.87,0,0,0,4.26-.89.8.8,0,1,1,.91,1.32,6.61,6.61,0,0,1-5.61,1.11,6.63,6.63,0,0,1-3.94-3.29C16.91,18.5,17.45,13.91,21.85,11a10.56,10.56,0,0,1,6.09-1.82Z"/><path class="cls-2" d="M60.78,19.64a.8.8,0,0,1,.68,1.21l-.13.23-2.61,4.65-.56,1,0,.06-.06.12c-.21.4-.41.79-.59,1.16a5.77,5.77,0,0,0-.67,2.36c0,.26.07.34.14.4a1.23,1.23,0,0,0,.81.09,3.31,3.31,0,0,0,1.83-1.17,17.31,17.31,0,0,0,2.52-3.72.81.81,0,0,1,1.09-.34.82.82,0,0,1,.32,1.1,18.88,18.88,0,0,1-2.78,4.06,4.73,4.73,0,0,1-2.81,1.66,2.66,2.66,0,0,1-2-.42c-.67-.53-.62-1.1-1.36-.54a4,4,0,0,1-2.07,1,3,3,0,0,1-3.21-1.73,4.22,4.22,0,0,1,.23-3.42c.38-.77.81-1.61,1.28-2.45l2.66-4.73h0l.09-.15a.77.77,0,0,1,.7-.41.79.79,0,0,1,.68,1.2L54.9,21l-2.65,4.73c-.46.81-.88,1.63-1.25,2.38a2.83,2.83,0,0,0-.18,2.11c.22.54.53.85,1.56.74a3.32,3.32,0,0,0,1.82-1.17,17.52,17.52,0,0,0,2.45-3.58c.22-.42.45-.84.68-1.26l2.61-4.65h0l.14-.23a.8.8,0,0,1,.7-.42Z"/><path class="cls-2" d="M70.34,14.58l-2.26,4c-.53.95-.2,1,.51.92H69.7a.8.8,0,0,1,.81.8.79.79,0,0,1-.81.8H67.81c-1.26,0-1.34.36-1.61.83l-2.11,3.76c-.45.81-.87,1.63-1.24,2.38a5.77,5.77,0,0,0-.67,2.36c0,.26.07.34.14.4a1.23,1.23,0,0,0,.81.09A3.31,3.31,0,0,0,65,29.79a18.07,18.07,0,0,0,2.52-3.72.8.8,0,1,1,1.41.76,18.88,18.88,0,0,1-2.78,4.06,4.73,4.73,0,0,1-2.81,1.66,2.66,2.66,0,0,1-1.95-.42,2.12,2.12,0,0,1-.77-1.55,6.51,6.51,0,0,1,.84-3.18c.38-.77.81-1.61,1.28-2.45l1.69-3c.32-.58.18-.79-.5-.8H62.75a.79.79,0,0,1-.81-.8.8.8,0,0,1,.81-.8h1.87a1.59,1.59,0,0,0,1.67-1L69,13.8a.8.8,0,1,1,1.39.78Z"/><path class="cls-2" d="M70.46,23.92l-1.74,3.16a.8.8,0,1,1-1.4-.78c.56-1,1.17-2.1,1.74-3.15a.83.83,0,0,1,.7-.43A.8.8,0,0,1,70.46,23.92Zm.62-6.42h.09a1.54,1.54,0,0,1,1,.4,2.07,2.07,0,0,1,.24,2.48c-.18.38-.28.68.09.83l.59.19a3.46,3.46,0,0,1,1.86,1.2,2.78,2.78,0,0,1,0,2.73c-.58,1.23-1.51,2.87-1.95,4.14a2.68,2.68,0,0,0-.07,1.29c.07.2.07.17.18.2a2.62,2.62,0,0,0,1.71-.89,17.87,17.87,0,0,0,2.8-4,.8.8,0,1,1,1.41.76,19.31,19.31,0,0,1-3.06,4.35,3.51,3.51,0,0,1-3.23,1.33,1.9,1.9,0,0,1-1.32-1.24,4,4,0,0,1,0-2.22.24.24,0,0,0,0-.08c.53-1.5,1.5-3.19,2-4.32.36-.78.28-1,.17-1.15a2.46,2.46,0,0,0-1.06-.59,13.67,13.67,0,0,1-1.94-.71,2.53,2.53,0,0,1-1.48-1.86,2.82,2.82,0,0,1,.44-2l0,0a2.13,2.13,0,0,1,1.22-.82l.27,0Zm-.21,1.8a1.17,1.17,0,0,0-.21.44c0,.3.09.3.19.11,0,0,0,0,0,0a2.36,2.36,0,0,0,.14-.26C71.05,19.43,71.14,19,70.87,19.3Z"/><path class="cls-2" d="M81.18,20.39a.8.8,0,0,1,.8.8.92.92,0,0,1-.11.4l-2.32,4.14c-.45.81-.87,1.63-1.24,2.38a5.81,5.81,0,0,0-.68,2.35c0,.27.08.35.15.4s.29.16.81.1a3.26,3.26,0,0,0,1.82-1.17,17.66,17.66,0,0,0,2.53-3.72.86.86,0,0,1,.71-.43.79.79,0,0,1,.79.8.9.9,0,0,1-.1.39,18.88,18.88,0,0,1-2.77,4.06,4.76,4.76,0,0,1-2.81,1.66,2.69,2.69,0,0,1-2-.42A2.14,2.14,0,0,1,76,30.58a6.5,6.5,0,0,1,.83-3.18c.38-.77.82-1.61,1.29-2.45l2.32-4.14a.86.86,0,0,1,.7-.42Zm2.38-1.57a1.05,1.05,0,1,1-1-1.05A1,1,0,0,1,83.56,18.82Z"/><path class="cls-2" d="M95.6,26.94h0a.8.8,0,0,1,0,1.6H86.86a.8.8,0,1,1,0-1.6H95.6Z"/><path class="cls-2" d="M130.11,11.57a2.5,2.5,0,0,1,1.72,1.73,4.55,4.55,0,0,1-.27,2.86c-1.11,2.85-4,5.95-8,7.93a2.7,2.7,0,0,0-1.73,2,28.79,28.79,0,0,1-2.09,6.24A12.07,12.07,0,0,1,108.64,39a9.6,9.6,0,0,1-8.43-5.15c-1.55-3.06-1.41-7.14,1.33-11.14,3.37-4.94,8.45-5.65,11.74-3.75a6.22,6.22,0,0,1,3.11,4.51c.12.85.28,1,1.06.9.36-.05.72-.11,1.07-.18a.8.8,0,1,1,.33,1.56,15.45,15.45,0,0,1-1.54.25,1.41,1.41,0,0,0-1.42,1,10.33,10.33,0,0,1-1.76,2.83.79.79,0,1,1-1.21-1,6.6,6.6,0,0,0,1.89-5.13,4.57,4.57,0,0,0-2.33-3.34,6.23,6.23,0,0,0-5.36-.33c-.85.33-.9.82-.45,1.38A7.65,7.65,0,0,0,111,24a19.06,19.06,0,0,0,2,.39.8.8,0,1,1-.21,1.59,18.14,18.14,0,0,1-2.22-.44,9.37,9.37,0,0,1-5.16-3.18c-.63-.82-1-.62-1.53-.05a11.6,11.6,0,0,0-1,1.29c-2.47,3.62-2.49,7-1.21,9.51a8,8,0,0,0,7,4.28,10.43,10.43,0,0,0,9.6-5.78c1.25-2.46,1.87-5.58,2.62-8.66s1.61-6.14,3.55-8.46c1.63-1.94,3.27-3,4.71-3A3.08,3.08,0,0,1,130.11,11.57Zm-13.89-1.25a6.61,6.61,0,0,1,2.87,4,.8.8,0,1,1-1.55.4,4.8,4.8,0,0,0-2.16-3,7.39,7.39,0,0,0-3.46-1c-3.63-.18-6.31,3.11-6.5,6.53a.8.8,0,1,1-1.59-.09c.23-4.2,3.55-8.26,8.17-8A8.77,8.77,0,0,1,116.22,10.32Zm9.45,5.19A15.16,15.16,0,0,0,123,21.14c-.35,1.21-.19,1.52.81,1,3.15-1.84,5.43-4.43,6.24-6.52a3.09,3.09,0,0,0,.22-1.84.77.77,0,0,0-.6-.63.82.82,0,0,0-.28,0C128.65,13.07,127.23,13.64,125.67,15.51Z"/><path class="cls-2" d="M135.23,19.67a2.23,2.23,0,0,1,1,.24,1.82,1.82,0,0,1,.83,1c.18.48.47.36.76.16h0a7.85,7.85,0,0,1,2.25-1.2,3.82,3.82,0,0,1,1.09-.18,2.17,2.17,0,0,1,1,.24,2.11,2.11,0,0,1,1,1.95,7,7,0,0,1-.91,2.92c-.12.26-.26.53-.4.81l-.06.14c0,.08-.09.16-.13.24-.18.32-.36.66-.54,1s-.4.78-.58,1.15a5.77,5.77,0,0,0-.67,2.36c0,.26.07.34.14.39a1.13,1.13,0,0,0,.81.1,3.31,3.31,0,0,0,1.83-1.17,17.31,17.31,0,0,0,2.52-3.72.8.8,0,1,1,1.41.76,19.25,19.25,0,0,1-2.77,4.06,4.78,4.78,0,0,1-2.82,1.66,2.66,2.66,0,0,1-2-.42,2.12,2.12,0,0,1-.77-1.55,6.51,6.51,0,0,1,.84-3.18c.13-.26.26-.53.41-.81a.42.42,0,0,1,.06-.14l.13-.24.53-1c.21-.39.4-.78.59-1.15h0a6,6,0,0,0,.73-2.25c0-.43-.06-.45-.15-.49a1.42,1.42,0,0,0-.91.05,6,6,0,0,0-1.77.95,11.67,11.67,0,0,0-3,3.5c-.24.46-.49.93-.76,1.4l-2.75,4.92a.81.81,0,0,1-1.1.32.79.79,0,0,1-.29-1.1l2.75-4.92.53-1,.06-.12.15-.27c.18-.34.35-.68.51-1h0a6,6,0,0,0,.73-2.25c0-.43-.06-.45-.15-.49a1.42,1.42,0,0,0-.91.05,6.22,6.22,0,0,0-1.77.95,11.63,11.63,0,0,0-3.13,3.78.61.61,0,0,1-.12.16l-3.32,5.91a.79.79,0,0,1-1.09.32.8.8,0,0,1-.3-1.1l5.56-9.9.76-1.4a.8.8,0,0,1,1.36-.09c.29.42.37.37.61.24a6,6,0,0,1,1-.4,3.88,3.88,0,0,1,1.09-.18Z"/><path class="cls-2" d="M152.17,19.63a3.22,3.22,0,0,1,1.1.19A2.75,2.75,0,0,1,154.72,21a3.52,3.52,0,0,1,.42,1.78,9.3,9.3,0,0,1-1.12,4h0a17.33,17.33,0,0,1-1.43,2.3c-.41.55-.44.9.11,1.06a1.7,1.7,0,0,0,1.64-.67,5.83,5.83,0,0,0,.38-.46,21,21,0,0,0,1.86-2.95.8.8,0,1,1,1.41.76A24.47,24.47,0,0,1,156,30a7.32,7.32,0,0,1-.48.58,3.38,3.38,0,0,1-3.14,1.13,2.83,2.83,0,0,1-1.94-1.56.81.81,0,0,1-.14-.33l0-.12a3,3,0,0,1-.12-1.17,2,2,0,0,1,1-1.59c.65-.31,1-.15,1.44-.87a7.87,7.87,0,0,0,.95-3.25,2,2,0,0,0-.21-1,1.05,1.05,0,0,0-.6-.5,1.89,1.89,0,0,0-1.36.06,5.35,5.35,0,0,0-1.58,1.05,15.07,15.07,0,0,0-2.67,3.5,7,7,0,0,0-1,3.35,1.52,1.52,0,0,0,1,1.66,2.16,2.16,0,0,0,1.64-.34.8.8,0,1,1,.8,1.38,3.75,3.75,0,0,1-2.89.49h0a3.33,3.33,0,0,1-2.14-3.13,8.3,8.3,0,0,1,1.22-4.18,16.36,16.36,0,0,1,3-3.89,6.58,6.58,0,0,1,2.09-1.37,3.91,3.91,0,0,1,1.21-.26Z"/><path class="cls-2" d="M163.46,19.63a3.32,3.32,0,0,1,1.11.19A2.83,2.83,0,0,1,166,21a3.62,3.62,0,0,1,.41,1.78,9.16,9.16,0,0,1-1.12,4h0a16.33,16.33,0,0,1-1.43,2.3c-.41.55-.44.9.12,1.06a1.72,1.72,0,0,0,1.64-.67c.1-.11.22-.27.37-.46a21,21,0,0,0,1.86-2.95.81.81,0,0,1,.7-.43.8.8,0,0,1,.71,1.19,22.5,22.5,0,0,1-2,3.17,7.32,7.32,0,0,1-.48.58,3.36,3.36,0,0,1-3.14,1.13,2.83,2.83,0,0,1-1.94-1.56.79.79,0,0,1-.13-.33.56.56,0,0,1,0-.12,3,3,0,0,1-.12-1.17,2,2,0,0,1,1-1.59c.66-.31,1-.15,1.45-.87a8,8,0,0,0,.94-3.25,2.05,2.05,0,0,0-.2-1,1,1,0,0,0-.61-.5,1.89,1.89,0,0,0-1.36.06,5.61,5.61,0,0,0-1.58,1.05,15,15,0,0,0-2.66,3.5,7,7,0,0,0-1,3.35,1.54,1.54,0,0,0,1,1.66,2.19,2.19,0,0,0,1.65-.34.8.8,0,1,1,.8,1.38,3.77,3.77,0,0,1-2.9.49h-.05a3.33,3.33,0,0,1-2.14-3.13A8.3,8.3,0,0,1,157,25.15a16.36,16.36,0,0,1,3-3.89,6.81,6.81,0,0,1,2.09-1.37,3.91,3.91,0,0,1,1.22-.26Z"/><path class="cls-2" d="M176.1,14.58l-2.27,4c-.53.95-.19,1,.51.92h1.12a.81.81,0,0,1,.81.8.8.8,0,0,1-.81.8h-1.9c-1.25,0-1.34.36-1.61.83l-2.1,3.76c-.46.81-.88,1.63-1.25,2.38a5.77,5.77,0,0,0-.67,2.36c0,.26.07.34.15.4a1.17,1.17,0,0,0,.8.09,3.31,3.31,0,0,0,1.83-1.17,17.31,17.31,0,0,0,2.52-3.72.8.8,0,1,1,1.41.76,19.25,19.25,0,0,1-2.77,4.06,4.78,4.78,0,0,1-2.82,1.66,2.67,2.67,0,0,1-2-.42,2.07,2.07,0,0,1-.76-1.55,6.4,6.4,0,0,1,.83-3.18c.38-.77.81-1.61,1.28-2.45l1.69-3c.32-.58.18-.79-.49-.8H168.5a.79.79,0,0,1-.81-.8.8.8,0,0,1,.81-.8h1.87a1.59,1.59,0,0,0,1.67-1l2.66-4.74a.8.8,0,1,1,1.4.78Z"/><path class="cls-2" d="M180.81,13.36a.8.8,0,0,1,.69,1.2l-2.86,5.1c-.28.5-.28.63.34.36a4.22,4.22,0,0,1,1.46-.36h.36a2,2,0,0,1,1.32.63,2.15,2.15,0,0,1,.48,1.46,7.92,7.92,0,0,1-1.55,4l0,0a20.73,20.73,0,0,0-1.62,2.56,6.19,6.19,0,0,0-.57,1.57c-.07.44,0,.67.1.79.3.35.47.37,1,.15a5,5,0,0,0,1.84-1.73,28.84,28.84,0,0,0,2-3.07.8.8,0,1,1,1.41.76,29.77,29.77,0,0,1-2.1,3.22,6.24,6.24,0,0,1-2.53,2.29,2.46,2.46,0,0,1-2.82-.58,2.52,2.52,0,0,1-.45-2.09,6.78,6.78,0,0,1,.72-2,19.18,19.18,0,0,1,1.72-2.74,7.44,7.44,0,0,0,1.3-3.16.61.61,0,0,0-.09-.4s-.07-.07-.25-.09a4,4,0,0,0-2.07.79,12.09,12.09,0,0,0-2.87,2.78l-4.13,7.35a.8.8,0,1,1-1.39-.78l4.13-7.35a.59.59,0,0,1,0-.08l5.73-10.19a.8.8,0,0,1,.7-.42Z"/></svg>