<svg id="Layer_1" data-name="Layer 1" xmlns="http://www.w3.org/2000/svg" viewBox="0 0 200 50"><defs><style>.cls-1{fill:#e37477;}</style></defs><path class="cls-1" d="M10,36.12V11.24L27,29V16.34a3.51,3.51,0,0,1,3.52-3.51h0V37.54l-17-17.73V36.12Z"/><path class="cls-1" d="M36.6,21.43v8.43q0,3.64,2.88,3.65t2.88-3.65V24.63a3.2,3.2,0,0,1,3.2-3.2h.19v8.51a9.49,9.49,0,0,1-.43,3,5.11,5.11,0,0,1-1.47,2.07,6.38,6.38,0,0,1-4.37,1.49,6.38,6.38,0,0,1-4.36-1.49A5.1,5.1,0,0,1,33.62,33a8.42,8.42,0,0,1-.42-3V24.63a3.2,3.2,0,0,1,3.2-3.2Z"/><path class="cls-1" d="M53.54,24.59V36.12h-3.4V24.59H48.7V21.43h1.44v-2a3.4,3.4,0,0,1,3.4-3.4h0v5.39h2.64v3.16Z"/><path class="cls-1" d="M58.49,21.43h3.39v1.31a6.5,6.5,0,0,1,1.66-1.34A3.83,3.83,0,0,1,65.29,21a5.52,5.52,0,0,1,2.81.87L66.54,25a3.24,3.24,0,0,0-1.88-.69q-2.77,0-2.78,4.19v7.62H58.49Z"/><path class="cls-1" d="M68.72,15.32a2.1,2.1,0,0,1,.65-1.54,2.15,2.15,0,0,1,1.56-.65,2.17,2.17,0,0,1,1.57.65,2.08,2.08,0,0,1,.64,1.55,2.2,2.2,0,0,1-2.2,2.22,2.22,2.22,0,0,1-2.22-2.23Zm3.91,6.11V36.12H69.24V24.82a3.39,3.39,0,0,1,3.39-3.39Z"/><path class="cls-1" d="M85.47,25.7h3.77a3,3,0,0,1-3,2.95H82.51A3,3,0,0,1,85.47,25.7Z"/><path class="cls-1" d="M111.48,16.3,108.63,18a4.76,4.76,0,0,0-1.53-1.81,3.55,3.55,0,0,0-1.94-.49,3.6,3.6,0,0,0-2.43.83,2.61,2.61,0,0,0-1,2.06c0,1.13.85,2.05,2.54,2.74l2.32.95a10,10,0,0,1,4.15,2.8,6.27,6.27,0,0,1,1.31,4.05,7.11,7.11,0,0,1-2.14,5.31,7.34,7.34,0,0,1-5.35,2.11,7.12,7.12,0,0,1-5-1.79,8.25,8.25,0,0,1-2.43-5.06l3.56-.78a6.12,6.12,0,0,0,.84,2.84,4,4,0,0,0,5.9.4,3.78,3.78,0,0,0,1.09-2.79,4.08,4.08,0,0,0-.19-1.24,3.08,3.08,0,0,0-.59-1,4.56,4.56,0,0,0-1-.89,10.06,10.06,0,0,0-1.51-.79L103,24.46q-4.78-2-4.78-5.91a5.65,5.65,0,0,1,2-4.4,7.3,7.3,0,0,1,5-1.77A7,7,0,0,1,111.48,16.3Z"/><path class="cls-1" d="M114.4,21.43h3.4v1.36a6.9,6.9,0,0,1,1.67-1.39,4.08,4.08,0,0,1,1.86-.38,4.48,4.48,0,0,1,3.93,2.17A5.1,5.1,0,0,1,129.59,21q5,0,5,6v9.08h-3.41V28a6.21,6.21,0,0,0-.52-3,1.86,1.86,0,0,0-1.73-.89,2.21,2.21,0,0,0-2.05,1.06,6.85,6.85,0,0,0-.64,3.39v7.59H122.8V28q0-3.91-2.26-3.92a2.28,2.28,0,0,0-2.09,1.07,6.68,6.68,0,0,0-.65,3.38v7.59h-3.4Z"/><path class="cls-1" d="M136.87,28.67a7.31,7.31,0,0,1,2.28-5.42,8,8,0,0,1,11.14,0,7.48,7.48,0,0,1,2.26,5.52,7.45,7.45,0,0,1-2.28,5.54,7.81,7.81,0,0,1-5.63,2.21,7.45,7.45,0,0,1-5.53-2.26A7.61,7.61,0,0,1,136.87,28.67Zm3.47.06a5,5,0,0,0,1.18,3.48,4.58,4.58,0,0,0,6.37,0,4.87,4.87,0,0,0,1.19-3.43,4.84,4.84,0,0,0-1.19-3.42,4.15,4.15,0,0,0-3.19-1.3,4.1,4.1,0,0,0-3.15,1.3A4.73,4.73,0,0,0,140.34,28.73Z"/><path class="cls-1" d="M151.63,28.67a7.31,7.31,0,0,1,2.28-5.42A7.59,7.59,0,0,1,159.46,21,7.67,7.67,0,0,1,165,23.27a7.48,7.48,0,0,1,2.26,5.52A7.45,7.45,0,0,1,165,34.33a7.79,7.79,0,0,1-5.62,2.21,7.46,7.46,0,0,1-5.54-2.26A7.6,7.6,0,0,1,151.63,28.67Zm3.47.06a5,5,0,0,0,1.17,3.48,4.58,4.58,0,0,0,6.37,0,4.82,4.82,0,0,0,1.19-3.43,4.8,4.8,0,0,0-1.19-3.42,4.51,4.51,0,0,0-6.34,0A4.73,4.73,0,0,0,155.1,28.73Z"/><path class="cls-1" d="M173.3,24.59V36.12h-3.39V24.59h-1.45V21.43h1.45v-2A3.4,3.4,0,0,1,173.3,16h0v5.39h2.64v3.16Z"/><path class="cls-1" d="M181,10.64h0v12A5.84,5.84,0,0,1,185,21a5.17,5.17,0,0,1,4,1.61,6.55,6.55,0,0,1,1.27,4.48v9h-3.4V27.43a4.2,4.2,0,0,0-.62-2.56,2.45,2.45,0,0,0-2-.79,2.77,2.77,0,0,0-2.5,1.1A7.63,7.63,0,0,0,181,29v7.1H177.6V14A3.39,3.39,0,0,1,181,10.64Z"/></svg>